<svg version="1" xmlns="http://www.w3.org/2000/svg" width="1365.333" height="1365.333" viewBox="0 0 1024.000000 1024.000000"><path d="M0 512v512h1024V0H0v512zm296-215.6v28.5l-21.9.3c-20.5.3-22.2.4-24.8 2.4-1.5 1.1-3.4 3.8-4.1 5.9-1 2.9-1.2 40.1-1 179.4.3 170.4.4 175.7 2.2 178.4 3.3 4.9 4.7 5.1 27.9 5.5l21.7.4V753h-35.8c-39 0-43.2-.5-52.2-5.7-10.3-6.1-17.3-14.8-21.4-26.6l-2.1-6.2-.3-198c-.2-136 .1-200.7.8-206.5 2.7-21.4 18.6-38.1 39-40.9 3.6-.5 21.2-.9 39.3-1l32.7-.1v28.4zm509.7-25.7c11.7 3.9 20.5 10.9 26.6 21.3 6 10.4 5.7-2.7 5.7 219s.4 206.9-6 218.9c-5.6 10.4-17.3 19.3-29.1 22-2.5.6-19.7 1.1-40.1 1.1H727v-55.8l21.3-.4c23.7-.4 26.3-1 28.8-7 1.2-2.8 1.4-31.2 1.4-179.3 0-168.2-.1-176.1-1.8-179.3-3-5.6-6-6.2-29.2-6.2H727v-57.2l36.3.4c33.2.4 36.7.6 42.4 2.5zM436.2 597.9c7.9 3.1 16.9 10.1 21.1 16.4 4.1 6.1 7.7 16 7.8 21.4.1 3.1.4 2.5 1.8-3.7 2.2-9.7 5.3-15.9 10.7-21.9 15.2-16.9 39.5-19.9 59-7.3 10.6 6.9 18.1 18.7 19.1 30.2.7 6.8 1.7 6.2 2.7-1.5 1.7-13 11.7-25.8 25.3-32.3 7.5-3.6 8.2-3.7 18.8-3.7 10.6 0 11.3.1 18.5 3.6 10.3 5 17.1 11.3 21.5 20.2 6.9 14 6.9 27.4 0 41.4-4.4 8.9-11.2 15.2-21.5 20.2-7.2 3.5-7.9 3.6-18.5 3.6s-11.3-.1-18.8-3.7c-13.6-6.5-23.6-19.3-25.3-32.3-1-7.7-2-8.3-2.7-1.5-1 11.5-8.5 23.3-19.1 30.2-19.5 12.6-43.8 9.6-59-7.3-5.4-6-8.5-12.2-10.7-21.9-1.4-6.2-1.7-6.8-1.8-3.7-.1 5.4-3.7 15.3-7.8 21.4-1.9 2.9-6.1 7.3-9.4 9.7-19.4 14.6-45.2 12.2-61.6-5.6-15.2-16.7-15-43.4.4-59.9 5.6-6 12.6-10.6 20.1-13 7.8-2.6 21.4-2.1 29.4 1z"/></svg>