<svg version="1" xmlns="http://www.w3.org/2000/svg" width="682.667" height="682.667" viewBox="0 0 512.000000 512.000000"><path d="M0 256v256h512V0H0v256zm144.8-102.8l-.3 12.3-8.7.3-8.8.3V346h18v24H96V141h49.1l-.3 12.2zM416 255.5V370h-49v-24h18V166.1l-8.7-.3-8.8-.3-.3-12.3-.3-12.2H416v114.5zm-221.1 39.6c9.9 2.1 14.1 8.3 14.1 20.9 0 12.9-4.4 19-15.1 21-11.2 2.1-20.8-1.4-24.6-9-3-5.8-3.2-17.5-.4-23.6 3.8-8.4 13.8-12 26-9.3zm68 0c9.9 2.1 14.1 8.3 14.1 20.9 0 8.8-2.2 14.6-6.8 17.9-4.4 3.1-12.9 4.4-19.8 3.2C239.5 335 235 329 235 316c0-12.1 3.8-18.2 12.7-20.6 6.1-1.6 9-1.7 15.2-.3zm68 0c9.8 2.2 14 8.5 14.1 20.9 0 5.9-.5 8.6-2.2 12-3.9 7.6-13.5 11.1-24.7 9-10.7-2-15.1-8.1-15.1-21 0-12.1 3.8-18.2 12.7-20.6 5.9-1.6 9.5-1.6 15.2-.3z"/></svg>