<?xml version="1.0" encoding="UTF-8"?>
<svg width="360px" height="360px" viewBox="0 0 360 360" version="1.1" xmlns="http://www.w3.org/2000/svg" xmlns:xlink="http://www.w3.org/1999/xlink">
    <!-- Generator: Sketch 50 (54983) - http://www.bohemiancoding.com/sketch -->
    <title>Artboard Copy</title>
    <desc>Created with Sketch.</desc>
    <defs></defs>
    <g id="Artboard-Copy" stroke="none" stroke-width="1" fill="none" fill-rule="evenodd">
        <path d="M149.958644,180 L26.3523573,56.4958678 L56.5260546,26.6115702 L180.132341,150.115702 L303.473945,26.6115702 L333.647643,56.4958678 L210.041356,180 L333.647643,303.504132 L303.473945,333.38843 L180.132341,209.884298 L56.5260546,333.38843 L26.6170389,303.504132 L149.958644,180 Z M53.0851944,213.322314 C44.0859765,213.322314 36.3220619,210.060639 29.7932175,203.53719 C23.2643732,197.013741 20,189.16809 20,180 C20,170.83191 23.2643732,162.942182 29.7932175,156.330579 C36.3220619,149.718975 44.1742028,146.413223 53.3498759,146.413223 C62.7020043,146.413223 70.6423715,149.674899 77.1712159,156.198347 C83.7000602,162.721796 86.9644334,170.655601 86.9644334,180 C86.9644334,189.344399 83.7000602,197.234128 77.1712159,203.669421 C70.6423715,210.104715 62.613778,213.322314 53.0851944,213.322314 Z M306.120761,213.322314 C297.121543,213.322314 289.357628,210.060639 282.828784,203.53719 C276.29994,197.013741 273.035567,189.16809 273.035567,180 C273.035567,170.83191 276.29994,162.942182 282.828784,156.330579 C289.357628,149.718975 297.297996,146.413223 306.650124,146.413223 C315.825797,146.413223 323.677938,149.674899 330.206782,156.198347 C336.735627,162.721796 340,170.655601 340,180 C340,189.344399 336.735627,197.234128 330.206782,203.669421 C323.677938,210.104715 315.649345,213.322314 306.120761,213.322314 Z M179.602978,86.9090909 C170.60376,86.9090909 162.839845,83.6033388 156.311001,76.9917355 C149.782156,70.3801322 146.517783,62.5785574 146.517783,53.5867769 C146.517783,44.2423775 149.782156,36.3085726 156.311001,29.785124 C162.839845,23.2616754 170.780212,20 180.132341,20 C189.308014,20 197.160155,23.2616754 203.688999,29.785124 C210.217844,36.3085726 213.482217,44.1542241 213.482217,53.322314 C213.482217,62.6667134 210.217844,70.6005183 203.688999,77.1239669 C197.160155,83.6474155 189.131561,86.9090909 179.602978,86.9090909 Z M178.544251,340 C169.545034,340 161.781119,336.694248 155.252275,330.082645 C148.72343,323.471041 145.459057,315.581313 145.459057,306.413223 C145.459057,297.245133 148.72343,289.399482 155.252275,282.876033 C161.781119,276.352584 169.63326,273.090909 178.808933,273.090909 C188.161061,273.090909 196.101429,276.352584 202.630273,282.876033 C209.159117,289.399482 212.42349,297.245133 212.42349,306.413223 C212.42349,315.757622 209.159117,323.691427 202.630273,330.214876 C196.101429,336.738325 188.072835,340 178.544251,340 Z" id="※" fill="#FFFFFF"></path>
    </g>
</svg>