<svg version="1" xmlns="http://www.w3.org/2000/svg" width="1365.333" height="1365.333" viewBox="0 0 1024.000000 1024.000000"><path d="M0 512v512h1024V0H0v512zm276-227.5V313l-42.2.2-42.3.3-.3 198.7L191 711h85v57H118V256h158v28.5zM904 512v256H746v-57h85l-.2-198.8-.3-198.7-42.2-.3-42.3-.2v-57h158v256zm-522.6 84.8c12.7 6 20.2 14.3 24.6 27.3 1.8 5.3 2.1 8.1 1.8 15.9-.3 8.1-.8 10.5-3.5 16.3-3.8 8-12.2 17.2-19.1 21-17.9 9.7-39.4 6.5-53.7-8-23.1-23.4-13.8-63.2 17.4-74 5.5-2 8.2-2.3 16.1-2 8.3.2 10.4.7 16.4 3.5zm141.8-1.7c26.4 8.8 38.5 37.7 26.3 62.5-13.7 28-49.8 33.9-72.1 11.8-9.8-9.8-14.8-24.8-12.6-37.9 2.8-17.3 14.8-31.4 31-36.6 8-2.5 19.6-2.5 27.4.2zm144.7-.2c8.3 2.6 13.7 6 19.8 12.3 16.6 17.6 16.5 43.9-.3 61.8-25.4 27-70.9 12.3-76.7-24.9-4.9-31.7 26.5-58.8 57.2-49.2z"/></svg>